<svg width="11" height="11" viewBox="0 0 11 11" fill="none" xmlns="http://www.w3.org/2000/svg">
<g clip-path="url(#clip0_61_2059)">
<path d="M10.753 9.30647L8.12202 6.67523C8.53217 6.00197 8.74852 5.22855 8.74722 4.44017C8.74722 2.06099 6.68573 5.6302e-08 4.30677 5.6302e-08C3.74117 -9.14068e-05 3.1811 0.111255 2.65853 0.327679C2.13597 0.544103 1.66116 0.861364 1.26122 1.26134C0.861282 1.66132 0.544051 2.13618 0.327647 2.65879C0.111244 3.1814 -9.1398e-05 3.74153 5.62966e-08 4.30718C5.62966e-08 6.68567 2.06149 8.74736 4.43975 8.74736C5.20207 8.74804 5.95075 8.54517 6.60845 8.1597L9.25336 10.8063C9.37774 10.9303 9.54624 11 9.72192 11C9.89759 11 10.0661 10.9303 10.1905 10.8063L10.847 10.1497C11.1053 9.89135 11.0113 9.56479 10.753 9.30647ZM1.32559 4.30718C1.32531 3.91554 1.40223 3.52769 1.55195 3.1658C1.70166 2.8039 1.92123 2.47507 2.1981 2.19811C2.47498 1.92114 2.80372 1.70148 3.16555 1.55166C3.52737 1.40185 3.91517 1.32484 4.30677 1.32502C5.95401 1.32502 7.42163 2.79208 7.42163 4.44017C7.42144 5.23104 7.10722 5.98945 6.54805 6.54868C5.98888 7.1079 5.23054 7.42215 4.43975 7.42234C2.79251 7.42164 1.32559 5.95389 1.32559 4.30718Z" fill="white"/>
</g>
<defs>
<clipPath id="clip0_61_2059">
<rect width="11" height="11" fill="white"/>
</clipPath>
</defs>
</svg>
