<svg width="23" height="18" viewBox="0 0 23 18" fill="none" xmlns="http://www.w3.org/2000/svg">
<path d="M9.93086 17.1115C9.63081 17.4115 9.22392 17.58 8.79966 17.58C8.3754 17.58 7.9685 17.4115 7.66846 17.1115L0.468459 9.91154C0.168505 9.61149 7.322e-07 9.2046 7.69291e-07 8.78034C8.06381e-07 8.35608 0.168506 7.94918 0.468459 7.64914L7.66846 0.449139C7.97022 0.157687 8.37439 -0.00358318 8.7939 6.18039e-05C9.21342 0.00370678 9.61472 0.171977 9.91137 0.468631C10.208 0.765284 10.3763 1.16658 10.3799 1.5861C10.3836 2.00561 10.2223 2.40978 9.93086 2.71154L5.59966 7.18034L20.7997 7.18034C21.224 7.18034 21.631 7.34891 21.931 7.64897C22.2311 7.94903 22.3997 8.35599 22.3997 8.78034C22.3997 9.20469 22.2311 9.61165 21.931 9.91171C21.631 10.2118 21.224 10.3803 20.7997 10.3803L5.59966 10.3803L9.93086 14.8491C10.2308 15.1492 10.3993 15.5561 10.3993 15.9803C10.3993 16.4046 10.2308 16.8115 9.93086 17.1115Z" fill="white"/>
</svg>
