<svg width="17" height="17" viewBox="0 0 17 17" fill="none" xmlns="http://www.w3.org/2000/svg">
<g clip-path="url(#clip0_70_123)">
<path d="M8.5 8.5C7.33125 8.5 6.33073 8.08385 5.49844 7.25156C4.66615 6.41927 4.25 5.41875 4.25 4.25C4.25 3.08125 4.66615 2.08073 5.49844 1.24844C6.33073 0.416146 7.33125 0 8.5 0C9.66875 0 10.6693 0.416146 11.5016 1.24844C12.3339 2.08073 12.75 3.08125 12.75 4.25C12.75 5.41875 12.3339 6.41927 11.5016 7.25156C10.6693 8.08385 9.66875 8.5 8.5 8.5ZM0 17V14.025C0 13.4229 0.155125 12.8697 0.465375 12.3654C0.775625 11.861 1.18717 11.4757 1.7 11.2094C2.79792 10.6604 3.91354 10.2489 5.04687 9.97475C6.18021 9.70062 7.33125 9.56321 8.5 9.5625C9.66875 9.56179 10.8198 9.69921 11.9531 9.97475C13.0865 10.2503 14.2021 10.6618 15.3 11.2094C15.8135 11.475 16.2254 11.8603 16.5357 12.3654C16.8459 12.8704 17.0007 13.4236 17 14.025V17H0ZM2.125 14.875H14.875V14.025C14.875 13.8302 14.8265 13.6531 14.7294 13.4938C14.6324 13.3344 14.5038 13.2104 14.3437 13.1219C13.3875 12.6438 12.4224 12.2853 11.4484 12.0466C10.4745 11.8079 9.49167 11.6882 8.5 11.6875C7.50833 11.6868 6.52552 11.8065 5.55156 12.0466C4.5776 12.2867 3.6125 12.6452 2.65625 13.1219C2.49687 13.2104 2.36831 13.3344 2.27056 13.4938C2.17281 13.6531 2.12429 13.8302 2.125 14.025V14.875ZM8.5 6.375C9.08437 6.375 9.58481 6.1671 10.0013 5.75131C10.4178 5.33552 10.6257 4.83508 10.625 4.25C10.6243 3.66492 10.4164 3.16483 10.0013 2.74975C9.58623 2.33467 9.08579 2.12642 8.5 2.125C7.91421 2.12358 7.41412 2.33183 6.99975 2.74975C6.58537 3.16767 6.37712 3.66775 6.375 4.25C6.37287 4.83225 6.58112 5.33269 6.99975 5.75131C7.41837 6.16994 7.91846 6.37783 8.5 6.375Z" fill="#8B8B98" fill-opacity="0.39"/>
</g>
<defs>
<clipPath id="clip0_70_123">
<rect width="17" height="17" fill="white"/>
</clipPath>
</defs>
</svg>
