<svg width="14" height="14" viewBox="0 0 14 14" fill="none" xmlns="http://www.w3.org/2000/svg">
<path d="M9.91671 10.5C10.2261 10.5 10.5229 10.6229 10.7417 10.8417C10.9605 11.0605 11.0834 11.3573 11.0834 11.6667C11.0834 11.9761 10.9605 12.2728 10.7417 12.4916C10.5229 12.7104 10.2261 12.8333 9.91671 12.8333C9.60729 12.8333 9.31054 12.7104 9.09175 12.4916C8.87296 12.2728 8.75004 11.9761 8.75004 11.6667C8.75004 11.0192 9.26921 10.5 9.91671 10.5ZM0.583374 1.16667H2.49087L3.03921 2.33334H11.6667C11.8214 2.33334 11.9698 2.3948 12.0792 2.50419C12.1886 2.61359 12.25 2.76196 12.25 2.91667C12.25 3.01584 12.2209 3.11501 12.18 3.20834L10.0917 6.98251C9.89337 7.33834 9.50838 7.58334 9.07088 7.58334H4.72504L4.20004 8.53417L4.18254 8.60417C4.18254 8.64285 4.19791 8.67994 4.22525 8.70729C4.2526 8.73464 4.2897 8.75001 4.32837 8.75001H11.0834V9.91667H4.08337C3.77396 9.91667 3.47721 9.79376 3.25842 9.57496C3.03962 9.35617 2.91671 9.05942 2.91671 8.75001C2.91671 8.54584 2.96921 8.35334 3.05671 8.19001L3.85004 6.76084L1.75004 2.33334H0.583374V1.16667ZM4.08337 10.5C4.39279 10.5 4.68954 10.6229 4.90833 10.8417C5.12712 11.0605 5.25004 11.3573 5.25004 11.6667C5.25004 11.9761 5.12712 12.2728 4.90833 12.4916C4.68954 12.7104 4.39279 12.8333 4.08337 12.8333C3.77396 12.8333 3.47721 12.7104 3.25842 12.4916C3.03962 12.2728 2.91671 11.9761 2.91671 11.6667C2.91671 11.0192 3.43587 10.5 4.08337 10.5ZM9.33337 6.41667L10.955 3.50001H3.58171L4.95837 6.41667H9.33337Z" fill="white"/>
</svg>
