<svg preserveAspectRatio="none" width="100%" height="100%" overflow="visible" style="display: block;" viewBox="0 0 342 130" fill="none" xmlns="http://www.w3.org/2000/svg">
<g id="Subtract" filter="url(#filter0_d_435_16)">
<mask id="path-1-inside-1_435_16" fill="white">
<path d="M322 0C330.837 3.22129e-07 338 7.16344 338 16V41.0059C333.01 41.1337 328.25 43.172 324.711 46.7109C321.054 50.3679 319 55.3283 319 60.5C319 65.6717 321.054 70.6321 324.711 74.2891C328.25 77.828 333.01 79.8653 338 79.9932V106C338 114.837 330.837 122 322 122H20C11.1634 122 4 114.837 4 106V79.9932C8.99049 79.8653 13.7501 77.828 17.2891 74.2891C20.946 70.6321 23 65.6717 23 60.5C23 55.3283 20.946 50.3679 17.2891 46.7109C13.7501 43.172 8.9905 41.1337 4 41.0059V16C4 7.16345 11.1634 3.22129e-07 20 0H322Z"/>
</mask>
<path d="M322 0C330.837 3.22129e-07 338 7.16344 338 16V41.0059C333.01 41.1337 328.25 43.172 324.711 46.7109C321.054 50.3679 319 55.3283 319 60.5C319 65.6717 321.054 70.6321 324.711 74.2891C328.25 77.828 333.01 79.8653 338 79.9932V106C338 114.837 330.837 122 322 122H20C11.1634 122 4 114.837 4 106V79.9932C8.99049 79.8653 13.7501 77.828 17.2891 74.2891C20.946 70.6321 23 65.6717 23 60.5C23 55.3283 20.946 50.3679 17.2891 46.7109C13.7501 43.172 8.9905 41.1337 4 41.0059V16C4 7.16345 11.1634 3.22129e-07 20 0H322Z" fill="var(--fill-0, #16D020)" fill-opacity="0.6" shape-rendering="crispEdges"/>
<path d="M322 0L322 -1H322V0ZM338 41.0059L338.026 42.0055L339 41.9806V41.0059H338ZM324.711 46.7109L324.004 46.0038L324.004 46.0038L324.711 46.7109ZM319 60.5L318 60.5L319 60.5ZM324.711 74.2891L324.004 74.9962L324.004 74.9962L324.711 74.2891ZM338 79.9932H339V79.0185L338.026 78.9935L338 79.9932ZM338 106L339 106V106H338ZM322 122L322 123H322L322 122ZM20 122L20 123H20V122ZM4 79.9932L3.97439 78.9935L3 79.0185V79.9932H4ZM17.2891 74.2891L17.9962 74.9962L17.9962 74.9962L17.2891 74.2891ZM23 60.5L24 60.5L24 60.5L23 60.5ZM17.2891 46.7109L17.9962 46.0038L17.2891 46.7109ZM4 41.0059H3V41.9806L3.97439 42.0055L4 41.0059ZM4 16L3 16V16H4ZM20 0L20 -1L20 -1L20 0ZM322 0L322 1C330.284 1 337 7.71573 337 16H338H339C339 6.61116 331.389 -1 322 -1L322 0ZM338 16H337V41.0059H338H339V16H338ZM338 41.0059L337.974 40.0062C332.728 40.1406 327.724 42.2834 324.004 46.0038L324.711 46.7109L325.418 47.418C328.775 44.0606 333.291 42.1268 338.026 42.0055L338 41.0059ZM324.711 46.7109L324.004 46.0038C320.159 49.8484 318 55.0632 318 60.5L319 60.5L320 60.5C320 55.5934 321.949 50.8874 325.418 47.418L324.711 46.7109ZM319 60.5L318 60.5C318 65.9368 320.159 71.1516 324.004 74.9962L324.711 74.2891L325.418 73.582C321.949 70.1126 320 65.4066 320 60.5L319 60.5ZM324.711 74.2891L324.004 74.9962C327.724 78.7167 332.728 80.8584 337.974 80.9928L338 79.9932L338.026 78.9935C333.291 78.8722 328.775 76.9393 325.418 73.582L324.711 74.2891ZM338 79.9932H337V106H338H339V79.9932H338ZM338 106L337 106C337 114.284 330.284 121 322 121L322 122L322 123C331.389 123 339 115.389 339 106L338 106ZM322 122V121H20V122V123H322V122ZM20 122L20 121C11.7157 121 5 114.284 5 106H4H3C3 115.389 10.6112 123 20 123L20 122ZM4 106H5V79.9932H4H3V106H4ZM4 79.9932L4.02561 80.9928C9.2719 80.8584 14.2756 78.7167 17.9962 74.9962L17.2891 74.2891L16.582 73.582C13.2246 76.9393 8.70907 78.8722 3.97439 78.9935L4 79.9932ZM17.2891 74.2891L17.9962 74.9962C21.8407 71.1516 24 65.9368 24 60.5L23 60.5L22 60.5C22 65.4066 20.0513 70.1126 16.582 73.582L17.2891 74.2891ZM23 60.5L24 60.5C24 55.0632 21.8407 49.8484 17.9962 46.0038L17.2891 46.7109L16.582 47.418C20.0513 50.8874 22 55.5934 22 60.5L23 60.5ZM17.2891 46.7109L17.9962 46.0038C14.2757 42.2834 9.27204 40.1406 4.02561 40.0062L4 41.0059L3.97439 42.0055C8.70895 42.1268 13.2245 44.0606 16.582 47.418L17.2891 46.7109ZM4 41.0059H5V16H4H3V41.0059H4ZM4 16L5 16C5 7.71573 11.7157 1 20 1L20 0L20 -1C10.6112 -1 3 6.61116 3 16L4 16ZM20 0V1H322V0V-1H20V0Z" fill="var(--stroke-0, black)" fill-opacity="0.07" mask="url(#path-1-inside-1_435_16)"/>
</g>
<defs>
<filter id="filter0_d_435_16" x="0" y="0" width="342" height="130" filterUnits="userSpaceOnUse" color-interpolation-filters="sRGB">
<feFlood flood-opacity="0" result="BackgroundImageFix"/>
<feColorMatrix in="SourceAlpha" type="matrix" values="0 0 0 0 0 0 0 0 0 0 0 0 0 0 0 0 0 0 127 0" result="hardAlpha"/>
<feOffset dy="4"/>
<feGaussianBlur stdDeviation="2"/>
<feComposite in2="hardAlpha" operator="out"/>
<feColorMatrix type="matrix" values="0 0 0 0 0 0 0 0 0 0 0 0 0 0 0 0 0 0 0.25 0"/>
<feBlend mode="normal" in2="BackgroundImageFix" result="effect1_dropShadow_435_16"/>
<feBlend mode="normal" in="SourceGraphic" in2="effect1_dropShadow_435_16" result="shape"/>
</filter>
</defs>
</svg>
