<svg width="12" height="12" viewBox="0 0 12 12" fill="none" xmlns="http://www.w3.org/2000/svg">
<path d="M9.33333 9.33333C9.64275 9.33333 9.9395 9.45625 10.1583 9.67504C10.3771 9.89384 10.5 10.1906 10.5 10.5C10.5 10.8094 10.3771 11.1062 10.1583 11.325C9.9395 11.5438 9.64275 11.6667 9.33333 11.6667C9.02391 11.6667 8.72717 11.5438 8.50838 11.325C8.28958 11.1062 8.16667 10.8094 8.16667 10.5C8.16667 9.8525 8.68583 9.33333 9.33333 9.33333ZM0 0H1.9075L2.45583 1.16667H11.0833C11.238 1.16667 11.3864 1.22812 11.4958 1.33752C11.6052 1.44692 11.6667 1.59529 11.6667 1.75C11.6667 1.84917 11.6375 1.94833 11.5967 2.04167L9.50833 5.81583C9.31 6.17167 8.925 6.41667 8.4875 6.41667H4.14167L3.61667 7.3675L3.59917 7.4375C3.59917 7.47618 3.61453 7.51327 3.64188 7.54062C3.66923 7.56797 3.70632 7.58333 3.745 7.58333H10.5V8.75H3.5C3.19058 8.75 2.89383 8.62708 2.67504 8.40829C2.45625 8.1895 2.33333 7.89275 2.33333 7.58333C2.33333 7.37917 2.38583 7.18667 2.47333 7.02333L3.26667 5.59417L1.16667 1.16667H0V0ZM3.5 9.33333C3.80942 9.33333 4.10617 9.45625 4.32496 9.67504C4.54375 9.89384 4.66667 10.1906 4.66667 10.5C4.66667 10.8094 4.54375 11.1062 4.32496 11.325C4.10617 11.5438 3.80942 11.6667 3.5 11.6667C3.19058 11.6667 2.89383 11.5438 2.67504 11.325C2.45625 11.1062 2.33333 10.8094 2.33333 10.5C2.33333 9.8525 2.8525 9.33333 3.5 9.33333ZM8.75 5.25L10.3717 2.33333H2.99833L4.375 5.25H8.75Z" fill="white"/>
</svg>
