<svg xmlns="http://www.w3.org/2000/svg" width="220" height="48" viewBox="0 0 660 144" fill="none">
  <!-- Colors based on site palette -->
  <defs>
    <style>
      .purple{fill:#35278C}
      .orange{fill:#F28C00}
      .white{fill:#FFFFFF}
    </style>
  </defs>
  <!-- Emblem -->
  <g transform="translate(12,12)">
    <rect x="0" y="0" rx="18" ry="18" width="120" height="120" class="purple"/>
    <path d="M20 100c-7 0-12-5-12-12V36c0-7 5-12 12-12h44c7 0 12 5 12 12v8H64v-4c0-4-3-7-7-7H28c-4 0-7 3-7 7v52c0 4 3 8 7 8h36c4 0 7-3 7-7v-8h12v12c0 7-5 12-12 12H20Z" class="white"/>
    <path d="M96 40H52c-6 0-10 4-10 10v16h54c6 0 10-4 10-10V40Z" class="orange"/>
    <rect x="52" y="56" width="24" height="12" rx="3" class="white"/>
    <rect x="52" y="84" width="44" height="24" class="orange"/>
  </g>

  <!-- Wordmark: simplified geometric rendering -->
  <g transform="translate(148,26)">
    <!-- FRACASSA (purple) -->
    <path class="purple" d="M0 72V4h78v16H18v10h56v16H18v26H0Z"/>
    <path class="purple" d="M88 60c0-18 14-32 34-32s34 14 34 32-14 32-34 32-34-14-34-32Zm52 0c0-10-7-16-18-16s-18 6-18 16 7 16 18 16 18-6 18-16Z"/>
    <path class="purple" d="M172 92V30h18v8h.3c4-6 11-10 22-10 18 0 30 13 30 32s-12 32-30 32c-10 0-18-4-22-11h-.3v11h-18Zm50-32c0-10-7-16-18-16s-18 6-18 16 7 16 18 16 18-6 18-16Z"/>
    <path class="purple" d="M258 30h20l16 46h.3l16-46h20l-26 62h-20L258 30Z"/>
    <path class="purple" d="M356 30h18v62h-18V30Z"/>
    <path class="purple" d="M386 30h21l14 20h.3l14-20h21l-24 33 24 29h-22l-14-18h-.3l-14 18h-22l24-29-24-33Z"/>
  </g>

  <g transform="translate(148,92)">
    <!-- autolinee (orange) -->
    <path class="orange" d="M0 24C0 11 10 2 26 2s26 9 26 22v20H36V24c0-5-4-8-10-8S16 19 16 24v20H0V24Z"/>
    <path class="orange" d="M62 2h16v42H62V2Z"/>
    <path class="orange" d="M86 24C86 11 96 2 112 2s26 9 26 22v20h-16V24c0-5-4-8-10-8s-10 3-10 8v20H86V24Z"/>
    <path class="orange" d="M156 2h16v42h-16V2Z"/>
    <path class="orange" d="M180 2h16v30c0 4 3 6 7 6s7-2 7-6V2h16v31c0 12-10 21-24 21s-22-8-22-20V2Z"/>
    <path class="orange" d="M260 2h16v42h-16V2Z"/>
    <path class="orange" d="M284 24C284 11 294 2 310 2s26 9 26 22v20h-16V24c0-5-4-8-10-8s-10 3-10 8v20h-16V24Z"/>
    <path class="orange" d="M354 2h48v14h-32v4h28v12h-28v12h-16V2Z"/>
  </g>
</svg>

